<?xml version="1.0" standalone="yes"?>
<svg xmlns="http://www.w3.org/2000/svg" width="393" height="189">
<path style="fill:#3d438b; stroke:none;" d="M0 0L0.058642 119.961L5.98071 133.004L3 189L12 189C12 180.37 8.71879 162.971 14 156L13 189L25 189L25 157L26 157L26 189L75 189L75 156L76 156L76 189L104 189L104 157L105 157L105 189L109 189L109 156L110 156L110 189L138 189L138 155L139 155L139 189L142 189L142 157L143 157L143 189L194 189L194 176L212 176L212 175L194 174L198.79 150L192 127L212 127L212 126L191 126C194.582 113.24 206.381 114.095 217 112.001C223.814 110.657 228.57 105.718 235 104.409C239.138 103.567 242.898 105.935 247 105.581C252.688 105.09 258.373 102.164 264 101L257.604 73.0008L272 60L272 58C267.786 55.7593 260.886 53.7295 257.56 50.4367C251.38 44.3191 253.842 30.059 252 22L267 22L267 21C260.98 21 252.141 23.0518 250 16L270.972 14.3966L272 0L0 0z"/>
<path style="fill:#1ea4d3; stroke:none;" d="M272 0C272 3.86961 273.212 10.325 270.972 13.6821C267.885 18.3083 254.919 16 250 16C251.233 23.3899 261.172 21 267 21L267 22L252 22C253.165 29.9218 251.479 44.2304 256.923 50.4367C259.035 52.8454 263.249 53.661 266 55.2323C271.088 58.1385 276.836 63.3196 283 63.4583C292.655 63.6756 302.994 50.8963 310 45.4244C318.055 39.1332 329.39 30.9041 333.157 21C335.464 14.9348 334 6.41911 334 0L333 0L333 19L304 19L304 18L332 18L332 0L272 0z"/>
<path style="fill:#3d438b; stroke:none;" d="M332 0L332 18L304 18L304 19L333 19L332 0z"/>
<path style="fill:#b5b83e; stroke:none;" d="M334 0C334 6.13838 335.359 14.1642 333.272 20C327.72 35.5302 307.978 44.1292 297.318 55.5139C293.099 60.0198 296.646 69.2942 289.687 72.0833C284.569 74.1344 284.078 67.2307 284 64C280.286 63.1179 275.825 60.1987 272 60.723C269.393 61.0804 267.049 62.9656 265 64.4792C252.321 73.8464 259.407 80.054 263.095 92C264.4 96.2274 262.513 102.017 265.934 105.397C268.959 108.384 276.095 107 280 107L280 109L268 108C269.623 116.155 274.383 117.994 282 118L282 122L277 122L277 121L281 121L281 120L275 120L284.638 138.397L297.142 147.285L297.711 166L299 189L358 189L358 158L359 158L359 189L374 189L373 149C379.064 157.005 375 179.012 375 189L378 189L378 157L379.603 144.603L393 143L393 142L380 142L380 141L393 140L393 106L391 94L391 93L391 92C393.68 90.495 392.152 89.4128 390 88L393 85L389 85L389 83L393 83L393 76L384 76L384 75L393 75L393 68L378.603 66.2577L377 49L377 0L356 0L356 52L355 52L355 0L334 0z"/>
<path style="fill:#5fa313; stroke:none;" d="M355 0L355 52L356 52L356 17L355 0M377 0L377 67L378 67L378 21L377 0z"/>
<path style="fill:#3d438b; stroke:none;" d="M378 0L378 67L393 67L393 0L378 0M292 21L294 23L294 21L292 21z"/>
<path style="fill:#5fa313; stroke:none;" d="M332 22L333 23L332 22M313 42L314 43L313 42M309 45L310 46L309 45M309 47L309 56L310 56L309 47M304 49L305 50L304 49M303 50L304 51L303 50M302 51L303 52L302 51M301 52L302 53L301 52M302 53L301 61L302 61L304 59L302 53M298 54L299 55L298 54z"/>
<path style="fill:#bd6818; stroke:none;" d="M294 58L285 66L295 66L294 58z"/>
<path style="fill:#5fa313; stroke:none;" d="M272 59L273 60L272 59M292 59L293 60L292 59M274 60L275 61L274 60M291 60L292 61L291 60M294 60L295 61L294 60M269 61L270 62L269 61M276 61L277 62L276 61M289 61L290 62L289 61M287 64L287 65L294 65L294 61L287 64M278 62L279 63L278 62M287 62L288 63L287 62M374 62L375 63L374 62M266 63L267 64L266 63M281 63L282 64L281 63M285.667 63.3333L286.333 63.6667L285.667 63.3333M350 63L350 72L352 63L350 63M284 64L284 68L295 67L295 66L284 64M320 64L321 65L320 64M262 66L263 67L262 66M261 67L262 68L261 67M379 67L379 68L393 68L379 67z"/>
<path style="fill:#3d438b; stroke:none;" d="M284 68L284 69L294 69L284 68z"/>
<path style="fill:#5fa313; stroke:none;" d="M361.333 68.6667L361.667 69.3333L361.333 68.6667M284 69L291 73L285 71L285 70L293 71L284 69z"/>
<path style="fill:#3d438b; stroke:none;" d="M285 70L285 71L292 71L285 70z"/>
<path style="fill:#5fa313; stroke:none;" d="M323 70L323 78L324 78L323 70M381 70L382 71L381 70M307 71L306 76L302 76L302 77L308 77L306 75L306 74L307 71z"/>
<path style="fill:#3d438b; stroke:none;" d="M285 72L285 73L290 73L285 72M350 72C350.029 82.115 353.874 82 363 82L350 72z"/>
<path style="fill:#5fa313; stroke:none;" d="M318 73L318 76C314.308 76.1376 313.496 77.7881 312 81L319 82L320 82L320 73L318 73M353 73L354 74L353 73z"/>
<path style="fill:#bd6818; stroke:none;" d="M318 74L319 75L318 74M304.667 75.3333L305.333 75.6667L304.667 75.3333M316.667 75.3333L317.333 75.6667L316.667 75.3333z"/>
<path style="fill:#5fa313; stroke:none;" d="M356 75L357 76L356 75M363 81L374 81L374 79L366 79L370 76C366.393 75.2394 364.476 77.942 363 81M384 75L384 76L393 76L384 75z"/>
<path style="fill:#bd6818; stroke:none;" d="M315 76L314 78L315 76z"/>
<path style="fill:#5fa313; stroke:none;" d="M361 76L362 77L361 76z"/>
<path style="fill:#3d438b; stroke:none;" d="M366 77L366 78L371 78L371 76L366 77M301 77L301 78L309 78L301 77z"/>
<path style="fill:#5fa313; stroke:none;" d="M371 77L372 78L371 77M301 78L301 79L309 79L301 78z"/>
<path style="fill:#bd6818; stroke:none;" d="M309 82L319 80L312 81L314 78L309 82z"/>
<path style="fill:#5fa313; stroke:none;" d="M360 78L361 79L360 78M300 79L301 80L300 79M310 79L311 80L310 79M350 80L351 81L350 80M258 82L259 83L258 82M297 82L297 84L318 84L297 82M352 82L352 83L376 83L352 82M261 83L262 84L261 83M389 83L389 85L393 85L393 83L389 83M354 84L355 85L354 84M365.333 84.6667L365.667 85.3333L365.333 84.6667z"/>
<path style="fill:#3d438b; stroke:none;" d="M366 84L366 86L377 86L377 84L366 84z"/>
<path style="fill:#5fa313; stroke:none;" d="M260 85L261 86L260 85M268 85L268 95L269 95L268 85M296 86L296 87L306 87L296 86M261 87L262 88L261 87M355 87L355 88L378 88L355 87M390 87L390 89L393 89L393 87L390 87M277 88L278 89L277 88M294 89L294 90L305 90L294 89M262 90L263 91L262 90M277 90L278 91L277 90M294 91L294 92L304 92L294 91M263.333 92.6667L263.667 93.3333L263.333 92.6667M391 92L391 94L393 94L393 92L391 92M271 95L271 97L281 97L281 95L271 95M268 96L269 97L268 96M293 96L294 97L293 96M369 96L369 97L380 97L369 96M266 98L266 99L281 99L266 98M356 98L356 100L368 99L356 98M292 100L292 101L303 101L292 100z"/>
<path style="fill:#bd6818; stroke:none;" d="M257 104L233 104.653L214 112L214 123L191 123L191 126L212 126L212 127C207.921 127 195.682 124.947 193.068 128.603C189.693 133.324 197.65 145.028 198.62 150C200.13 157.738 195.469 166.431 194 174L212 175L212 176L194 176L194 189L299 189L299 174L273 174L273 173L298 173C297.907 168.627 297.699 163.778 294 161L295 158L293 159L293 158C293.303 155.036 293.204 152.436 290 152L287 146L286 144L278 125L269 125L271 114C268.201 109.941 263.106 96.4943 257 104z"/>
<path style="fill:#5fa313; stroke:none;" d="M356 101L356 102L368 102L356 101z"/>
<path style="fill:#b5b83e; stroke:none;" d="M261 102L262 103L261 102z"/>
<path style="fill:#5fa313; stroke:none;" d="M304 102L304 103L316 103L304 102z"/>
<path style="fill:#b5b83e; stroke:none;" d="M256 103L257 104L256 103M258 103L259 104L258 103z"/>
<path style="fill:#5fa313; stroke:none;" d="M354 103L354 105L368 105L368 103L354 103z"/>
<path style="fill:#b5b83e; stroke:none;" d="M234 105L235 106L234 105M251 105L252 106L251 105M231 106L232 107L231 106M248 106L249 107L248 106M229 107L230 108L229 107z"/>
<path style="fill:#5fa313; stroke:none;" d="M267 107L267 108L280 109L280 107L267 107M352 107L352 108L366 108L352 107M292 108L292 109L304 109L292 108M305 108L306 109L305 108z"/>
<path style="fill:#3d438b; stroke:none;" d="M305 109L305 110L320 109L305 109z"/>
<path style="fill:#bd6818; stroke:none;" d="M305 110L305 111L316 111L305 110z"/>
<path style="fill:#5fa313; stroke:none;" d="M317 110L318 111L317 110M356 110C356.988 118.587 372.811 117.999 380 118L380 115L357 114L357 111L366 113C366.697 108.773 358.885 110 356 110M304 111L304 113L317 111L304 111z"/>
<path style="fill:#b5b83e; stroke:none;" d="M220 112L221 113L220 112z"/>
<path style="fill:#bd6818; stroke:none;" d="M200 113L201 114L200 113z"/>
<path style="fill:#5fa313; stroke:none;" d="M191 123L214 123L214 113C204.008 113.429 197.07 114.389 191 123z"/>
<path style="fill:#b5b83e; stroke:none;" d="M228 113L229 114L228 113M200 114L201 115L200 114M269 115L269 125L270 125L269 115z"/>
<path style="fill:#3d438b; stroke:none;" d="M270 115C270.005 121.567 270.335 124.175 277 126L270 115z"/>
<path style="fill:#5fa313; stroke:none;" d="M303 115L303 116L314 117L303 115z"/>
<path style="fill:#3d438b; stroke:none;" d="M303 116L303 119C306.987 118.997 310.668 119.598 313 116L303 116z"/>
<path style="fill:#5fa313; stroke:none;" d="M146 118C146 125.251 148.478 138.089 144 144L144 145L144 146L146 148L145 149L143 149L142 145L141 145L143 150C150.348 145.888 147 127.538 147 120L152 124L146 118M273 118L274 121L281 120L281 121L277 121L277 122L282 122L282 118L273 118M302 118L302 122L312 120L312 119L302 118M360 118L360 120L369 120L369 118L360 118M392 118L393 119L392 118z"/>
<path style="fill:#b5b83e; stroke:none;" d="M109 119L110 120L109 119z"/>
<path style="fill:#5fa313; stroke:none;" d="M109 120L109 147L110 147L109 120z"/>
<path style="fill:#bd6818; stroke:none;" d="M110 120L111 121L110 120z"/>
<path style="fill:#5fa313; stroke:none;" d="M275 121L276 122L275 121M361 121L370 124L370 121L361 121M139 122L136 125L137 143L138 143L138 125L139 125L139 143L140 143L141 122L139 122z"/>
<path style="fill:#3d438b; stroke:none;" d="M362 122L362 123L369 123L362 122z"/>
<path style="fill:#5fa313; stroke:none;" d="M276 123L277 124L276 123M0 124L0 143L1 143L2 124L0 124z"/>
<path style="fill:#bd6818; stroke:none;" d="M152.667 124.333L153.333 124.667L152.667 124.333z"/>
<path style="fill:#5fa313; stroke:none;" d="M277 124L278 125L277 124M302 124L302 125L309 125L302 124z"/>
<path style="fill:#b5b83e; stroke:none;" d="M1 125L0.0540123 147L0 189L1 189L6 127L1 125z"/>
<path style="fill:#5fa313; stroke:none;" d="M154 125L155 126L154 125z"/>
<path style="fill:#b5b83e; stroke:none;" d="M270 125L272 127L270 125z"/>
<path style="fill:#5fa313; stroke:none;" d="M3 126L4 127L3 126M10 126L6 150L7 150L10 126z"/>
<path style="fill:#bd6818; stroke:none;" d="M155 126L155 142L156 142L155 126z"/>
<path style="fill:#b5b83e; stroke:none;" d="M8 127L9 128L8 127M192 127L193 128L192 127M255 127L256 128L255 127z"/>
<path style="fill:#5fa313; stroke:none;" d="M297 128C298.52 131.753 302.371 136.238 306 132L303 133L299 130L299 129L307 128L297 128M389.333 127.667L389.667 128.333L389.333 127.667M3 128L3 142L5 142L5 128L3 128M364 128L370 131L364 128M11 129L11 132L12 132L11 129z"/>
<path style="fill:#b5b83e; stroke:none;" d="M82 130L83 131L82 130z"/>
<path style="fill:#5fa313; stroke:none;" d="M83 130L83 131L87 131L83 130M280 130L281 131L280 130M373 130L374 131L373 130M79.3333 131.667L79.6667 132.333L79.3333 131.667z"/>
<path style="fill:#b5b83e; stroke:none;" d="M80 131L81 132L80 131M78 132L79 133L78 132M252 132L253 133L252 132M276 132L276 133L280 133L276 132z"/>
<path style="fill:#bd6818; stroke:none;" d="M13 133L14 134L13 133z"/>
<path style="fill:#5fa313; stroke:none;" d="M76 133L76 135L78 133L76 133z"/>
<path style="fill:#3d438b; stroke:none;" d="M251 133L251 139L258 139L251 133z"/>
<path style="fill:#b5b83e; stroke:none;" d="M262 133L263 134L262 133z"/>
<path style="fill:#3d438b; stroke:none;" d="M301 133L302 134L301 133z"/>
<path style="fill:#5fa313; stroke:none;" d="M13 134L14 135L13 134z"/>
<path style="fill:#b5b83e; stroke:none;" d="M255 134L264 137L264 136L255 134z"/>
<path style="fill:#5fa313; stroke:none;" d="M283 134L284 135L283 134M286 134L287 135L286 134M371 134L370 137L371 137L371 134z"/>
<path style="fill:#bd6818; stroke:none;" d="M13 135L13 147L14 147L13 135z"/>
<path style="fill:#5fa313; stroke:none;" d="M75 135L76 136L75 135z"/>
<path style="fill:#bd6818; stroke:none;" d="M255 135L256 136L255 135z"/>
<path style="fill:#3d438b; stroke:none;" d="M369.333 135.667L369.667 136.333L369.333 135.667z"/>
<path style="fill:#bd6818; stroke:none;" d="M256 136L257 137L256 136z"/>
<path style="fill:#5fa313; stroke:none;" d="M368 136L369 137L368 136M384 136L385 137L384 136M61 137L62 138L61 137M64 137L64 138L65 145L66 145C67.0051 141.473 67.2293 139.094 64 137z"/>
<path style="fill:#bd6818; stroke:none;" d="M66 137L67 138L66 137z"/>
<path style="fill:#3d438b; stroke:none;" d="M263 137L264 138L263 137z"/>
<path style="fill:#5fa313; stroke:none;" d="M285 137L290 139L290 138L285 137z"/>
<path style="fill:#bd6818; stroke:none;" d="M60 138L60 142L61 142L60 138z"/>
<path style="fill:#b5b83e; stroke:none;" d="M249 138L250 139L249 138M265 138L266 139L265 138M251 140L252 141L251 140z"/>
<path style="fill:#5fa313; stroke:none;" d="M286 140L286 141L292 141L292 142L287 142L287 143L296 145C293.159 141.271 290.651 140.151 286 140z"/>
<path style="fill:#3d438b; stroke:none;" d="M381 140L381 142L393 142L393 140L381 140z"/>
<path style="fill:#5fa313; stroke:none;" d="M153.667 141.333L154.333 141.667L153.667 141.333z"/>
<path style="fill:#b5b83e; stroke:none;" d="M259.667 141.333L260.333 141.667L259.667 141.333z"/>
<path style="fill:#3d438b; stroke:none;" d="M286 141L286 142L292 142L286 141z"/>
<path style="fill:#5fa313; stroke:none;" d="M380 141L381 142L380 141M60 142L61 143L60 142M64 142L65 143L64 142z"/>
<path style="fill:#bd6818; stroke:none;" d="M292 142L293 143L292 142z"/>
<path style="fill:#5fa313; stroke:none;" d="M3 143L3 145L5 143L3 143M61 143L61 146L64 145L64 144L61 143M141 143L142 144L141 143M151 143L151 148L152 148L151 143z"/>
<path style="fill:#b5b83e; stroke:none;" d="M286 143L287 144L286 143z"/>
<path style="fill:#3d438b; stroke:none;" d="M287 143L296 164C299.762 155.034 297.96 143.129 287 143M379 143L379 144L393 144L379 143z"/>
<path style="fill:#5fa313; stroke:none;" d="M5 144L6 145L5 144M378 144L378 189L393 189L393 144L378 144z"/>
<path style="fill:#b5b83e; stroke:none;" d="M287 145L288 146L287 145z"/>
<path style="fill:#5fa313; stroke:none;" d="M75 146L76 147L75 146M139 146L137 150L139 146M297 146L297 166L298 166L297 146M13 147L14 148L13 147M32 147L28 151L32 149L31 154L31 155C34.1761 152.88 33.6812 150.189 32 147M107 147L105 155L106 155L107 147M110 147L109 149L111 149L110 147z"/>
<path style="fill:#b5b83e; stroke:none;" d="M199 147L200 148L199 147M261 147L262 148L261 147M288 147L289 148L288 147z"/>
<path style="fill:#5fa313; stroke:none;" d="M11 148L13 153L14 153L11 148M25 148L25 150L27 150L27 148L25 148M77 148L76 151L77 151L77 148M153 149L153 150L157 150L157 151L152 154L153 154L158 152L158 149L153 149z"/>
<path style="fill:#b5b83e; stroke:none;" d="M289 149L290 150L289 149z"/>
<path style="fill:#5fa313; stroke:none;" d="M373 149L374 189L375 189L375 160L373 149M3.33333 150.667L3.66667 151.333L3.33333 150.667M87 150L84 155L84 156L88 156L87 150M108 150L109 151L108 150z"/>
<path style="fill:#b5b83e; stroke:none;" d="M200 150L201 151L200 150M290.333 150.667L290.667 151.333L290.333 150.667z"/>
<path style="fill:#5fa313; stroke:none;" d="M138.333 151.667L138.667 152.333L138.333 151.667M25 152L26 156L27 156L25 152M109 152L110 153L109 152M144 152L145 153L144 152M28.3333 153.667L28.6667 154.333L28.3333 153.667M76 153L77 154L76 153z"/>
<path style="fill:#b5b83e; stroke:none;" d="M291 153L292 154L291 153z"/>
<path style="fill:#5fa313; stroke:none;" d="M11 154L8 156L8 157L11 154M154 154L154 155L158 155L154 154M366 154L367 155L366 154M138 155L138 189L139 189L138 155M145 158L150 156L145 158z"/>
<path style="fill:#b5b83e; stroke:none;" d="M222 155L223 156L222 155z"/>
<path style="fill:#5fa313; stroke:none;" d="M3 156L4 157L3 156M12 156L12 189L13 189L14 156L12 156M75 156L75 189L76 189L75 156M109 156L109 189L110 189L109 156M140 156L141 157L140 156M152 156L153 157L152 156M2 157L1 189L3 189L2 157z"/>
<path style="fill:#bd6818; stroke:none;" d="M8 157L9 158L8 157z"/>
<path style="fill:#5fa313; stroke:none;" d="M25 157L25 189L26 189L25 157M82 157L83 158L82 157M104 157L104 189L105 189L104 157M142 157L142 189L143 189L142 157M150 157L151 158L150 157z"/>
<path style="fill:#b5b83e; stroke:none;" d="M293.333 157.667L293.667 158.333L293.333 157.667z"/>
<path style="fill:#5fa313; stroke:none;" d="M154 158L155 159L154 158M156 158L157 159L156 158z"/>
<path style="fill:#b5b83e; stroke:none;" d="M252 158L254 160L252 158z"/>
<path style="fill:#3d438b; stroke:none;" d="M254 158L254 159L260 160L260 158L254 158z"/>
<path style="fill:#5fa313; stroke:none;" d="M312 158L313 159L312 158M358 158L358 189L359 189L358 158z"/>
<path style="fill:#b5b83e; stroke:none;" d="M294 160L295 161L294 160M255 161L256 162L255 161M261 161L262 162L261 161M198 162L199 163L198 162z"/>
<path style="fill:#5fa313; stroke:none;" d="M345 162L346 163L345 162z"/>
<path style="fill:#b5b83e; stroke:none;" d="M256 163L257 164L256 163z"/>
<path style="fill:#5fa313; stroke:none;" d="M337 163L338 164L337 163z"/>
<path style="fill:#b5b83e; stroke:none;" d="M295 164L296 165L295 164M220 166L221 167L220 166M196.667 167.333L197.333 167.667L196.667 167.333M205.667 167.333L206.333 167.667L205.667 167.333M275 167L276 168L275 167M209 168L210 169L209 168M195 173L196 174L195 173M211 173L212 174L211 173z"/>
<path style="fill:#3d438b; stroke:none;" d="M273 173L273 174L299 174L273 173z"/>
<path style="fill:#b5b83e; stroke:none;" d="M213.333 174.667L213.667 175.333L213.333 174.667z"/>
</svg>
